<svg width="24" height="24" viewBox="0 0 24 24" fill="none" xmlns="http://www.w3.org/2000/svg">
<g clip-path="url(#clip0_1716_6076)">
<path d="M11.8085 3.867H4.76825C4.74003 3.867 4.72292 3.89818 4.73806 3.92204L8.25598 9.43598C8.25753 9.43832 8.26095 9.43832 8.2624 9.43598L11.8117 3.87286C11.8134 3.87033 11.8116 3.867 11.8085 3.867Z" fill="#2487FF"/>
<path d="M22.2705 9.42643L19.0109 3.8688C19.0103 3.86763 19.0089 3.86688 19.0076 3.86688H18.9301C18.9289 3.86688 18.9276 3.86754 18.9269 3.86866L15.4057 9.43511C15.404 9.43764 15.4059 9.44097 15.4089 9.44097H15.6643H22.2622C22.2696 9.44097 22.2742 9.4329 22.2705 9.42643Z" fill="#59A4FF"/>
<path d="M4.62014 3.86882L1.36056 9.42645C1.35681 9.43287 1.3614 9.44098 1.3689 9.44098H7.96678H8.2222C8.2252 9.44098 8.22707 9.43765 8.22543 9.43512L4.70414 3.86872C4.70344 3.86765 4.70222 3.86694 4.70091 3.86694H4.62343C4.62207 3.86699 4.6208 3.86769 4.62014 3.86882Z" fill="#9BC9FD"/>
<path d="M4.65065 3.86861C4.64104 3.85909 4.62478 3.85975 4.617 3.87189L1.3598 9.43514C1.35816 9.43768 1.36004 9.441 1.36304 9.441H4.78547L4.65065 3.86861Z" fill="#59A4FF"/>
<path d="M19.0105 3.86861C19.0201 3.85909 19.0363 3.85975 19.0441 3.87189L22.3013 9.43514C22.3029 9.43768 22.3011 9.441 22.2981 9.441H18.8756L19.0105 3.86861Z" fill="#9BC9FD"/>
<path d="M11.7969 3.89612L8.29315 9.43514C8.29151 9.43767 8.29338 9.441 8.29638 9.441H15.3347C15.3377 9.441 15.3396 9.43767 15.3379 9.43514L11.8341 3.89612C11.8255 3.88253 11.8056 3.88253 11.7969 3.89612Z" fill="#9BC9FD"/>
<path d="M11.8306 3.89284C11.821 3.88332 11.8047 3.88398 11.7969 3.89612L8.29312 9.43514C8.29148 9.43767 8.29335 9.441 8.29635 9.441H11.8305L11.8306 3.89284Z" fill="#59A4FF"/>
<path d="M7.9667 9.44098H1.36353C1.35875 9.44098 1.35598 9.44642 1.35879 9.45026L11.7882 23.6173C11.7909 23.6209 11.7966 23.6182 11.7955 23.6138L8.25991 9.44389C8.25949 9.44215 8.25794 9.44098 8.2562 9.44098H7.9667Z" fill="#2487FF"/>
<path d="M7.9708 9.44098H8.26039C8.26217 9.44098 8.26367 9.44215 8.2641 9.44389L11.7995 23.6131C11.8006 23.6176 11.7947 23.6205 11.7919 23.6167L11.7508 23.5609L4.78546 9.44098H7.9708Z" fill="#016EF1"/>
<path d="M22.2675 9.44098H15.6643H15.3747C15.3729 9.44098 15.3714 9.44215 15.371 9.44389L11.8356 23.6131C11.8345 23.6176 11.8404 23.6205 11.8432 23.6167L22.2722 9.45026C22.275 9.44642 22.2722 9.44098 22.2675 9.44098Z" fill="#2487FF"/>
<path d="M22.2675 9.44098H18.8497L11.8843 23.561L22.2722 9.45031C22.275 9.44642 22.2722 9.44098 22.2675 9.44098Z" fill="#016EF1"/>
<path d="M8.26418 9.44098H15.3669C15.3694 9.44098 15.3713 9.44332 15.3706 9.44576L11.8193 23.6395C11.8183 23.6434 11.8128 23.6434 11.8118 23.6395L8.26043 9.44576C8.25982 9.44332 8.2617 9.44098 8.26418 9.44098Z" fill="#9BC9FD"/>
<path d="M15.3669 9.44098C15.3693 9.44098 15.3712 9.44332 15.3706 9.44576L11.8353 23.5752V9.44098H15.3669Z" fill="#59A4FF"/>
<path d="M18.8484 3.867H11.8225C11.8195 3.867 11.8176 3.87033 11.8193 3.87286L15.3685 9.43598C15.3701 9.43832 15.3735 9.43832 15.375 9.43598L18.8852 3.93408C18.9038 3.90502 18.8829 3.867 18.8484 3.867Z" fill="#2487FF"/>
<path d="M4.09299 11.9802L6.36316 15.0637L6.93916 14.6396L4.66899 11.5561L4.09299 11.9802Z" fill="white"/>
<path d="M3.29531 10.8698L3.92609 11.7267L4.50205 11.3027L3.87128 10.4458L3.29531 10.8698Z" fill="white"/>
<path d="M20.7068 2.73212L21.2126 3.23785L22.5282 1.92225L22.0224 1.41652L20.7068 2.73212Z" fill="#2487FF"/>
<path d="M18.8088 1.74661L19.4801 1.99329L20.1217 0.247053L19.4504 0.000374995L18.8088 1.74661Z" fill="#2487FF"/>
<path d="M23.6979 3.82256L21.9517 4.46423L22.1983 5.13554L23.9446 4.49386L23.6979 3.82256Z" fill="#2487FF"/>
<path d="M22.579 9.24552L19.3176 3.68498L19.2102 3.50934L18.8671 3.51056C18.8608 3.51028 18.8547 3.50934 18.8484 3.50934H12.0202H11.8225H4.7683C4.76563 3.50934 4.76305 3.50981 4.76043 3.50985L4.41529 3.51117L1.05187 9.24589C1.02389 9.29375 1.00833 9.34662 1.00378 9.4003C0.991966 9.491 1.01414 9.58433 1.07081 9.66233L11.4874 23.812L11.5371 24H11.8156L12.0984 23.9971L12.1453 23.8096L22.5581 9.66509C22.6171 9.58662 22.6401 9.49062 22.627 9.3972C22.6221 9.34456 22.6065 9.29267 22.579 9.24552ZM21.6547 9.08337H16.0513L18.9589 4.48701L21.6547 9.08337ZM11.8155 4.53566L14.6922 9.08337H8.93876L11.8155 4.53566ZM8.71737 9.79864H14.9136L11.8155 22.181L8.71737 9.79864ZM18.2757 4.2246L15.3718 8.77616L12.4679 4.2246H18.2757ZM11.1632 4.2246L8.25926 8.77616L5.35536 4.2246H11.1632ZM4.67207 4.48706L7.57967 9.08342H1.97634L4.67207 4.48706ZM2.05935 9.79864H7.97989L11.0154 21.9643L2.05935 9.79864ZM12.6156 21.9643L15.6511 9.79864H21.5716L12.6156 21.9643Z" fill="black"/>
<path d="M7.90165 2.32649H8.61687V1.85666H9.08674V1.1414H8.61687V0.67157H7.90165V1.1414H7.43182V1.85666H7.90165V2.32649Z" fill="#9BC9FD"/>
<path d="M1.23955 15.3452H0.524332V15.815H0.0545044V16.5303H0.524332V17.0001H1.23955V16.5303H1.70942V15.815H1.23955V15.3452Z" fill="#9BC9FD"/>
<path d="M19.823 19.1417H19.1078V19.6114H18.6379V20.3267H19.1078V20.7965H19.823V20.3267H20.2928V19.6114H19.823V19.1417Z" fill="#9BC9FD"/>
</g>
<defs>
<clipPath id="clip0_1716_6076">
<rect width="24" height="24" fill="white"/>
</clipPath>
</defs>
</svg>
